<?xml version="1.0" standalone="no"?>
<!DOCTYPE svg PUBLIC "-//W3C//DTD SVG 20010904//EN"
 "http://www.w3.org/TR/2001/REC-SVG-20010904/DTD/svg10.dtd">
<svg version="1.0" xmlns="http://www.w3.org/2000/svg"
 width="1136.000000pt" height="517.000000pt" viewBox="0 0 1136.000000 517.000000"
 preserveAspectRatio="xMidYMid meet">
<metadata>
Created by potrace 1.16, written by Peter Selinger 2001-2019
</metadata>
<g transform="translate(0.000000,517.000000) scale(0.100000,-0.100000)"
fill="#000000" stroke="none">
<path d="M5390 5024 c-330 -44 -682 -187 -935 -378 -152 -115 -251 -206 -331
-302 -21 -26 -48 -57 -59 -68 -11 -12 -38 -46 -60 -76 -22 -30 -43 -56 -47
-58 -5 -2 -8 -10 -8 -18 0 -8 -4 -14 -10 -14 -5 0 -10 -5 -10 -12 0 -6 -11
-26 -25 -44 -14 -18 -25 -37 -25 -43 0 -6 -3 -11 -8 -11 -4 0 -13 -15 -20 -32
-13 -32 -35 -76 -68 -142 -31 -57 -34 -66 -34 -81 0 -8 -11 -34 -25 -58 -13
-25 -32 -73 -42 -107 -16 -59 -19 -63 -62 -82 -65 -27 -162 -100 -208 -154
l-40 -48 -29 21 c-82 58 -239 83 -374 59 -166 -30 -327 -142 -385 -269 -35
-76 -37 -133 -28 -672 l9 -460 28 -54 c97 -187 331 -269 581 -205 84 22 147
59 206 121 l51 54 39 -26 c77 -50 137 -67 241 -69 l97 -1 15 -33 c9 -17 17
-35 18 -40 1 -4 8 -13 15 -21 8 -7 12 -20 9 -27 -3 -7 0 -16 6 -20 7 -5 8 -2
3 7 -12 21 5 4 29 -29 166 -229 399 -453 606 -582 339 -212 686 -310 1096
-310 148 0 148 0 140 -136 -19 -337 -26 -435 -35 -478 -6 -28 -7 -54 -3 -58
14 -14 153 91 258 196 151 151 281 335 409 578 l40 76 77 31 c145 60 342 190
495 327 223 200 456 564 548 854 10 30 20 58 24 62 5 6 89 22 181 35 19 2 91
13 159 24 69 11 143 22 165 24 317 38 422 74 542 188 82 78 126 147 167 264
26 77 30 104 33 218 3 116 2 125 -9 88 -12 -43 -27 -66 -27 -43 0 8 -8 4 -19
-9 -12 -13 -21 -17 -23 -10 -3 8 -9 7 -20 -5 -9 -9 -20 -16 -24 -16 -16 0 -54
53 -55 78 -1 15 -4 234 -8 487 l-6 460 -25 50 c-48 98 -146 178 -260 213 -126
38 -342 3 -455 -74 -36 -24 -39 -24 -70 -10 -18 9 -58 16 -87 16 -49 0 -342
-45 -358 -55 -3 -2 -35 37 -71 88 -73 104 -250 293 -354 377 -197 160 -442
292 -676 364 -279 85 -604 115 -869 80z m400 -225 c125 -11 288 -46 415 -89
116 -39 246 -101 238 -113 -3 -6 -1 -7 5 -3 18 11 52 -15 42 -33 -4 -9 -10
-20 -12 -26 -1 -5 -9 -9 -15 -9 -7 1 -10 -2 -7 -7 8 -14 1 -11 -65 21 -164 82
-461 155 -667 166 -289 16 -630 -60 -902 -201 -270 -139 -466 -311 -656 -573
-44 -61 -82 -108 -84 -102 -6 18 84 177 155 271 89 118 268 292 394 381 234
167 522 278 808 313 136 16 209 17 351 4z m181 -253 c199 -42 376 -117 567
-242 97 -63 207 -151 267 -213 l39 -41 -93 0 c-109 0 -192 -19 -275 -63 -68
-36 -146 -103 -176 -152 l-22 -35 -32 35 c-42 44 -98 68 -161 68 -27 -1 -196
-24 -375 -52 -179 -28 -518 -80 -755 -116 -344 -53 -440 -71 -480 -90 -42 -20
-56 -23 -90 -15 -28 7 -71 5 -139 -5 -55 -8 -106 -15 -113 -15 -20 0 62 152
145 270 81 114 259 295 368 372 234 166 515 281 779 317 124 17 414 5 546 -23z
m2382 -479 c26 -16 60 -47 75 -69 l27 -41 8 -466 c4 -256 5 -493 1 -526 -8
-87 -38 -148 -100 -204 -76 -69 -144 -94 -264 -94 -138 -1 -214 36 -263 128
-22 39 -22 47 -22 545 l0 505 28 57 c64 130 198 200 372 195 79 -2 97 -7 138
-30z m-625 -159 l-3 -103 -95 -15 -95 -15 0 -587 c0 -322 -3 -590 -7 -594 -8
-7 -163 -33 -200 -34 -17 0 -18 35 -18 591 l0 592 -82 -8 c-46 -4 -87 -7 -93
-8 -16 -3 -19 192 -3 198 17 6 534 82 571 84 l28 1 -3 -102z m-791 -73 c48
-20 71 -41 95 -89 22 -42 43 -175 30 -188 -6 -6 -65 -16 -189 -33 -32 -4 -33
-3 -33 36 0 30 -7 47 -26 66 -23 23 -31 25 -81 21 -48 -4 -61 -10 -86 -38
l-29 -33 6 -420 c4 -324 9 -422 18 -429 40 -26 102 -21 155 12 25 15 34 29 39
59 6 39 6 39 68 50 33 6 88 14 120 17 l59 7 -6 -74 c-9 -128 -61 -222 -157
-288 -62 -42 -119 -60 -216 -67 -138 -11 -232 26 -276 109 -23 42 -23 45 -26
531 -3 435 -1 495 14 542 20 63 69 124 128 159 98 57 311 84 393 50z m-845
-137 c54 -254 179 -823 208 -948 64 -272 78 -340 70 -345 -4 -2 -55 -12 -115
-21 -125 -20 -118 -23 -136 78 -11 63 -14 68 -38 68 -32 0 -212 -27 -217 -33
-2 -2 -11 -42 -20 -89 l-16 -86 -56 -11 c-32 -5 -81 -13 -109 -17 l-53 -7 0
29 c0 35 69 396 140 734 28 135 69 335 91 444 22 110 40 201 42 202 5 5 124
22 163 23 36 1 42 -2 46 -21z m-472 -137 l0 -99 -27 -6 c-16 -3 -59 -10 -98
-16 l-70 -11 3 -583 2 -584 -62 -11 c-35 -5 -87 -13 -117 -17 l-54 -7 7 586 6
587 -27 -5 c-64 -11 -157 -24 -159 -22 -1 1 -4 46 -8 99 -7 96 -7 97 16 103
31 8 537 83 566 84 21 1 22 -2 22 -98z m-753 -1387 c-2 -2 -39 -10 -83 -17
-58 -11 -82 -11 -90 -3 -7 6 -50 124 -97 261 -47 138 -105 304 -129 370 l-43
120 -3 -402 -2 -401 -50 -11 c-28 -6 -75 -14 -105 -17 l-55 -7 0 691 0 691 45
7 c25 3 68 7 96 8 l51 1 129 -319 c124 -306 151 -367 134 -301 -6 27 -8 675
-2 681 2 2 48 9 102 16 l100 14 3 -690 c1 -379 1 -691 -1 -692z m-895 1206
c45 -13 93 -51 116 -94 15 -28 17 -78 17 -546 0 -507 0 -516 -22 -562 -28 -62
-102 -134 -167 -164 -74 -34 -195 -50 -266 -35 -68 14 -109 38 -145 85 -25 33
-29 48 -36 149 -12 171 -11 823 2 892 21 113 76 188 173 234 97 47 242 64 328
41z m-717 -179 c70 -39 105 -107 105 -201 l0 -67 -72 -7 c-40 -4 -90 -10 -110
-13 -38 -6 -38 -5 -38 29 0 72 -68 113 -144 88 -20 -6 -45 -23 -56 -37 -19
-25 -20 -40 -20 -429 l0 -403 28 -21 c22 -18 35 -21 70 -16 69 9 100 30 113
79 7 23 14 44 15 45 2 3 194 31 218 32 5 0 6 -38 4 -84 -11 -172 -98 -278
-263 -322 -67 -18 -170 -17 -234 2 -72 21 -143 91 -159 156 -8 32 -12 184 -12
491 0 499 1 512 69 588 61 70 140 105 276 123 70 9 160 -5 210 -33z m3789
-1008 c-133 -303 -353 -549 -645 -723 -171 -102 -402 -181 -610 -210 -117 -17
-345 -15 -464 4 -99 15 -312 71 -328 86 -4 4 18 10 49 13 34 3 83 18 118 36
43 21 65 27 77 20 41 -21 136 -5 189 32 22 15 29 15 50 3 31 -16 109 -18 147
-3 15 7 60 13 98 14 76 2 139 27 180 71 l23 25 38 -23 c54 -32 126 -30 192 4
44 23 56 25 87 17 91 -25 219 37 267 130 25 48 28 63 28 153 l0 99 53 52 c54
53 77 103 77 165 0 36 -7 33 145 57 55 8 125 19 155 24 30 5 65 9 77 10 l23 1
-26 -57z m-624 -17 l0 -55 -55 -6 -55 -7 0 -163 c0 -178 1 -175 -61 -175 l-29
0 0 161 0 162 -55 -6 -54 -5 -7 33 c-12 68 -13 68 146 91 80 12 151 22 158 23
8 1 12 -16 12 -53z m-492 -53 c11 -16 44 -77 75 -138 30 -60 71 -138 90 -172
23 -40 31 -63 23 -63 -7 0 -33 -3 -58 -6 -41 -6 -45 -4 -56 21 -12 26 -15 27
-65 21 -141 -17 -137 -16 -155 -53 -9 -18 -25 -35 -37 -38 -62 -12 -85 -14
-85 -6 0 5 32 91 71 192 38 101 76 200 83 219 10 26 21 37 42 41 48 11 52 10
72 -18z m-358 -237 c0 -234 2 -226 -61 -226 l-29 0 0 65 c0 65 0 65 -29 65
-15 0 -49 -3 -75 -6 l-46 -7 0 -73 c0 -53 -4 -74 -12 -74 -7 0 -30 -3 -50 -6
l-38 -7 0 216 0 216 35 7 c60 11 65 4 65 -86 l0 -80 38 0 c20 0 54 3 75 6 l37
7 0 93 c0 101 -2 98 68 103 l22 1 0 -214z m-461 116 c55 -27 62 -48 26 -76
-25 -20 -38 -24 -71 -19 -130 17 -206 -104 -122 -194 28 -30 104 -32 140 -3
l25 19 33 -28 33 -27 -36 -36 c-103 -104 -278 -53 -322 94 -13 43 -13 63 -4
108 9 47 19 63 64 107 74 72 161 93 234 55z m-501 -154 c-7 -13 -12 -57 -12
-98 0 -63 5 -85 29 -135 16 -33 31 -64 33 -69 3 -5 -22 11 -54 36 -64 49 -176
163 -212 215 l-23 32 33 6 c55 10 192 33 206 34 10 1 10 -3 0 -21z m-348 -81
c53 -79 204 -231 305 -307 316 -237 628 -344 1005 -343 178 0 299 14 455 55
139 36 171 40 186 22 6 -8 15 -11 21 -8 5 3 16 0 25 -8 12 -9 15 -9 9 0 -4 6
-2 12 3 12 6 0 11 -7 11 -15 0 -8 6 -15 14 -15 35 0 22 -20 -22 -34 -55 -19
-54 -18 -122 -166 -80 -174 -234 -440 -247 -426 -2 2 0 21 6 42 16 62 41 281
41 367 l0 79 -35 -6 c-406 -77 -882 12 -1250 232 -174 104 -397 312 -499 467
-58 87 -60 82 54 104 3 0 21 -23 40 -52z m2184 -458 c28 4 38 -1 32 -15 -5
-14 -4 -15 7 -5 11 9 20 7 38 -8 l23 -19 -52 -26 c-29 -14 -52 -23 -52 -19 0
5 -5 0 -11 -10 -8 -14 -14 -16 -25 -6 -12 10 -13 9 -9 -3 5 -12 0 -14 -20 -10
-15 2 -23 7 -17 11 13 9 11 40 -3 35 -7 -3 -11 7 -11 25 0 21 3 28 14 23 11
-4 13 -1 7 9 -7 12 -6 12 11 -1 10 -8 16 -11 12 -6 -4 5 3 17 15 26 13 11 24
14 28 8 3 -5 9 -9 13 -9z"/>
<path d="M5985 4371 c-70 -32 -105 -93 -105 -184 0 -173 186 -250 297 -124 85
97 54 256 -61 308 -52 23 -80 23 -131 0z"/>
<path d="M5015 4291 c-69 -43 -95 -91 -95 -178 0 -117 65 -188 171 -188 94 0
164 63 183 165 14 79 -44 182 -117 209 -43 17 -109 13 -142 -8z"/>
<path d="M8094 3886 c-66 -29 -64 -16 -64 -488 0 -415 1 -429 20 -448 38 -38
154 -19 180 29 6 13 10 173 10 446 l0 426 -25 24 c-28 28 -72 32 -121 11z"/>
<path d="M5935 2975 c-21 -124 -36 -227 -33 -230 7 -7 151 14 159 23 6 6 -74
418 -83 427 -2 2 -21 -97 -43 -220z"/>
<path d="M3780 3180 c-45 -8 -76 -28 -89 -57 -7 -16 -11 -164 -11 -433 0 -397
1 -411 20 -430 37 -37 144 -21 174 25 14 21 16 80 16 443 0 387 -1 420 -17
434 -24 20 -51 25 -93 18z"/>
</g>
</svg>
